# xmcd
#
# Track frame offsets:
#	150
#	18037
#	35160
#	51893
#	72777
#	92204
#	111761
#	127065
#	144169
#	164124
#	180630
#	199235
#	217014
#	236254
#	257336
#	273092
#	290870
#	310664
#	327837
#	343160
#
# Disc length: 4799 seconds
#
# Revision: 2
# Processed by: cddbd v1.5.1PL2 Copyright (c) Steve Scherf et al.
# Submitted via: audiograbber 1.83.01
#
DISCID=2e12bd14
DTITLE=Robin Trower - In The Line Of Fire - Passion
DYEAR=1900
DGENRE=Hard Rock
TTITLE0=Sea Of Love
TTITLE1=Under The Gun
TTITLE2=Turn Up The Volume
TTITLE3=Natural Fact
TTITLE4=If You Really Want To Find Love
TTITLE5=Ev'ry Body's Watching You Now
TTITLE6=Isn't It Time
TTITLE7=(I Would) Still Be Here for You
TTITLE8=All That I Want
TTITLE9=(Let's) Turn This Fight Into A Brawl
TTITLE10=Climb Above The Rooftops
TTITLE11=Caroline
TTITLE12=Secret Doors
TTITLE13=If Forever
TTITLE14=Won't Even Think About You
TTITLE15=Passion
TTITLE16=No Time
TTITLE17=Night
TTITLE18=Bad Time
TTITLE19=One More Word
EXTD=
EXTT0=
EXTT1=
EXTT2=
EXTT3=
EXTT4=
EXTT5=
EXTT6=
EXTT7=
EXTT8=
EXTT9=
EXTT10=
EXTT11=
EXTT12=
EXTT13=
EXTT14=
EXTT15=
EXTT16=
EXTT17=
EXTT18=
EXTT19=
PLAYORDER=
